{
  "accessors": [
    {
      "bufferView": 2,
      "componentType": 5126,
      "count": 21012,
      "max": [
        0.22998000681400299,
        8.2719001770019531,
        1.7596399784088135
      ],
      "min": [
        -0.21026000380516052,
        -8.2719001770019531,
        -1.5503799915313721
      ],
      "type": "VEC3"
    },
    {
      "bufferView": 2,
      "byteOffset": 252144,
      "componentType": 5126,
      "count": 21012,
      "max": [
        1,
        1,
        1
      ],
      "min": [
        -1,
        -1,
        -1
      ],
      "type": "VEC3"
    },
    {
      "bufferView": 3,
      "componentType": 5126,
      "count": 21012,
      "max": [
        0,
        0,
        0,
        1
      ],
      "min": [
        0,
        0,
        0,
        1
      ],
      "type": "VEC4"
    },
    {
      "bufferView": 1,
      "componentType": 5126,
      "count": 21012,
      "max": [
        0,
        0
      ],
      "min": [
        0,
        0
      ],
      "type": "VEC2"
    },
    {
      "bufferView": 0,
      "componentType": 5125,
      "count": 120936,
      "max": [
        21011
      ],
      "min": [
        0
      ],
      "type": "SCALAR"
    },
    {
      "bufferView": 2,
      "byteOffset": 504288,
      "componentType": 5126,
      "count": 5610,
      "max": [
        0.1147800013422966,
        6.8686399459838867,
        1.4859100580215454
      ],
      "min": [
        -0.09504999965429306,
        -6.8686399459838867,
        -1.259600043296814
      ],
      "type": "VEC3"
    },
    {
      "bufferView": 2,
      "byteOffset": 571608,
      "componentType": 5126,
      "count": 5610,
      "max": [
        1,
        0,
        0
      ],
      "min": [
        -1,
        0,
        0
      ],
      "type": "VEC3"
    },
    {
      "bufferView": 3,
      "byteOffset": 336192,
      "componentType": 5126,
      "count": 5610,
      "max": [
        0,
        0,
        0.012380016036331654,
        1
      ],
      "min": [
        0,
        -1,
        -0.0066237389110028744,
        1
      ],
      "type": "VEC4"
    },
    {
      "bufferView": 1,
      "byteOffset": 168096,
      "componentType": 5126,
      "count": 5610,
      "max": [
        0.84472000598907471,
        0.79750001430511475
      ],
      "min": [
        0.15525999665260315,
        0.22245000302791595
      ],
      "type": "VEC2"
    },
    {
      "bufferView": 0,
      "byteOffset": 483744,
      "componentType": 5125,
      "count": 31452,
      "max": [
        5609
      ],
      "min": [
        0
      ],
      "type": "SCALAR"
    }
  ],
  "asset": {
    "extras": {
      "author": "BhagwanSingh (https://sketchfab.com/BhagwanSingh)",
      "license": "CC-BY-4.0 (http://creativecommons.org/licenses/by/4.0/)",
      "source": "https://sketchfab.com/models/a186fcf85d6f4b44b1a31fcfc1d26105",
      "title": "Punjabi Clan Logo"
    },
    "generator": "Sketchfab-4.32.0",
    "version": "2.0"
  },
  "bufferViews": [
    {
      "buffer": 0,
      "byteLength": 609552,
      "byteOffset": 0,
      "name": "floatBufferViews",
      "target": 34963
    },
    {
      "buffer": 0,
      "byteLength": 212976,
      "byteOffset": 609552,
      "byteStride": 8,
      "name": "floatBufferViews",
      "target": 34962
    },
    {
      "buffer": 0,
      "byteLength": 638928,
      "byteOffset": 822528,
      "byteStride": 12,
      "name": "floatBufferViews",
      "target": 34962
    },
    {
      "buffer": 0,
      "byteLength": 425952,
      "byteOffset": 1461456,
      "byteStride": 16,
      "name": "floatBufferViews",
      "target": 34962
    }
  ],
  "buffers": [
    {
      "byteLength": 1887408,
      "uri": "scene.bin"
    }
  ],
  "images": [
    {
      "uri": "textures/Material_baseColor.jpeg"
    }
  ],
  "materials": [
    {
      "doubleSided": true,
      "emissiveFactor": [
        0,
        0,
        0
      ],
      "name": "Outer",
      "pbrMetallicRoughness": {
        "baseColorFactor": [
          0.50498740389544083,
          0.54545354780409916,
          0.0025584491312275774,
          1
        ],
        "metallicFactor": 0,
        "roughnessFactor": 0
      }
    },
    {
      "doubleSided": true,
      "emissiveFactor": [
        0,
        0,
        0
      ],
      "name": "Material",
      "pbrMetallicRoughness": {
        "baseColorFactor": [
          1,
          1,
          1,
          1
        ],
        "baseColorTexture": {
          "index": 0,
          "texCoord": 0
        },
        "metallicFactor": 0.91025152440000001,
        "roughnessFactor": 0
      }
    }
  ],
  "meshes": [
    {
      "name": "Cube.002_0",
      "primitives": [
        {
          "attributes": {
            "NORMAL": 1,
            "POSITION": 0,
            "TANGENT": 2,
            "TEXCOORD_0": 3
          },
          "indices": 4,
          "material": 0,
          "mode": 4
        }
      ]
    },
    {
      "name": "Cube.002_1",
      "primitives": [
        {
          "attributes": {
            "NORMAL": 6,
            "POSITION": 5,
            "TANGENT": 7,
            "TEXCOORD_0": 8
          },
          "indices": 9,
          "material": 1,
          "mode": 4
        }
      ]
    }
  ],
  "nodes": [
    {
      "children": [
        1
      ],
      "name": "RootNode (gltf orientation matrix)",
      "rotation": [
        -0.70710678118654746,
        -0,
        -0,
        0.70710678118654757
      ]
    },
    {
      "children": [
        2
      ],
      "name": "RootNode (model correction matrix)"
    },
    {
      "children": [
        3,
        6,
        8,
        10,
        12
      ],
      "name": "Root"
    },
    {
      "children": [
        4,
        5
      ],
      "matrix": [
        -0,
        1,
        0,
        0,
        -0.20983000000000002,
        -0,
        0,
        0,
        0,
        0,
        1,
        0,
        0,
        0,
        0,
        1
      ],
      "name": "Cube.002"
    },
    {
      "mesh": 0,
      "name": "Cube.002_0"
    },
    {
      "mesh": 1,
      "name": "Cube.002_1"
    },
    {
      "children": [
        7
      ],
      "matrix": [
        1,
        0,
        -0,
        0,
        0,
        -1.0000000000000004e-05,
        1,
        0,
        0,
        -1,
        -1.0000000000000004e-05,
        0,
        0,
        -8.01478,
        0,
        1
      ],
      "name": "Area"
    },
    {
      "name": "Area"
    },
    {
      "children": [
        9
      ],
      "matrix": [
        -0,
        1,
        -0,
        0,
        1.0000000000000004e-05,
        0,
        1,
        0,
        1,
        0,
        -1.0000000000000004e-05,
        0,
        7.9958099999999996,
        0.017880000000000004,
        0,
        1
      ],
      "name": "Area.001"
    },
    {
      "name": "Area.001"
    },
    {
      "children": [
        11
      ],
      "matrix": [
        -1,
        -0,
        -0,
        0,
        -0,
        1.0000000000000004e-05,
        1,
        0,
        -0,
        1,
        -1.0000000000000004e-05,
        0,
        0.073690000000000019,
        7.9400000000000004,
        0,
        1
      ],
      "name": "Area.002"
    },
    {
      "name": "Area.002"
    },
    {
      "children": [
        13
      ],
      "matrix": [
        0,
        -1,
        -0,
        0,
        -1.0000000000000004e-05,
        -0,
        1,
        0,
        -1,
        -0,
        -1.0000000000000004e-05,
        0,
        -7.9221199999999996,
        0.017880000000000004,
        0,
        1
      ],
      "name": "Area.003"
    },
    {
      "name": "Area.003"
    }
  ],
  "samplers": [
    {
      "magFilter": 9729,
      "minFilter": 9987,
      "wrapS": 10497,
      "wrapT": 10497
    }
  ],
  "scene": 0,
  "scenes": [
    {
      "name": "OSG_Scene",
      "nodes": [
        0
      ]
    }
  ],
  "textures": [
    {
      "sampler": 0,
      "source": 0
    }
  ]
}

